<svg width="43" height="55" viewBox="0 0 43 55" fill="none" xmlns="http://www.w3.org/2000/svg">
<path d="M41.0314 40.29C40.441 40.29 39.9631 40.7686 39.9631 41.3583V51.9889H2.13653V2.13653H39.9631V24.5181C39.9631 25.1078 40.441 25.5864 41.0314 25.5864C41.6218 25.5864 42.0996 25.1078 42.0996 24.5181V1.06827C42.0996 0.478583 41.6218 0 41.0314 0H1.06827C0.477871 0 0 0.478583 0 1.06827V53.0572C0 53.6469 0.477871 54.1255 1.06827 54.1255H41.0314C41.6218 54.1255 42.0996 53.6469 42.0996 53.0572V41.3583C42.0996 40.7686 41.6218 40.29 41.0314 40.29Z" fill="#FAD264"/>
</svg>
