<svg width="32" height="36" viewBox="0 0 32 36" fill="none" xmlns="http://www.w3.org/2000/svg">
<path d="M31.3598 3.18625H27.4766V2.43167C27.4766 1.09087 26.4055 0 25.0894 0C23.7724 0 22.7009 1.09087 22.7009 2.43167V3.18625H18.3825V2.43167C18.3825 1.09087 17.3115 0 15.9953 0C14.6775 0 13.6055 1.09087 13.6055 2.43167V3.18625H9.28844V2.43167C9.28844 1.09087 8.21779 0 6.90123 0C5.58338 0 4.51146 1.09087 4.51146 2.43167V3.18625H0.639318C0.285988 3.18625 0 3.47741 0 3.83712V35.1138C0 35.4731 0.285988 35.7647 0.639318 35.7647H31.3607C31.714 35.7647 32 35.4731 32 35.1138V3.83712C31.9991 3.47741 31.7132 3.18625 31.3598 3.18625ZM23.9791 2.43167C23.9791 1.80813 24.4769 1.30175 25.089 1.30175C25.7002 1.30175 26.1976 1.80856 26.1976 2.43167V5.76241C26.1976 6.38552 25.7002 6.89233 25.089 6.89233C24.4769 6.89233 23.9791 6.38552 23.9791 5.76241V2.43167ZM15.9949 1.30132C16.6061 1.30132 17.1035 1.80813 17.1035 2.43124V5.76198C17.1035 6.38508 16.6061 6.8919 15.9949 6.8919C15.382 6.8919 14.8837 6.38508 14.8837 5.76198V3.90829C14.8863 3.88442 14.891 3.86142 14.891 3.83669C14.891 3.81196 14.8863 3.78896 14.8837 3.76509V2.43124C14.8837 1.80813 15.3824 1.30132 15.9949 1.30132ZM5.78966 2.43167C5.78966 1.80813 6.28833 1.30175 6.9008 1.30175C7.51199 1.30175 8.00938 1.80856 8.00938 2.43167V5.76241C8.00938 6.38552 7.51199 6.89233 6.9008 6.89233C6.28791 6.89233 5.78966 6.38552 5.78966 5.76241V2.43167ZM30.7205 34.4625H1.27778V4.48757H4.5106V5.76198C4.5106 7.10278 5.58295 8.19365 6.90037 8.19365C8.21652 8.19365 9.28759 7.10278 9.28759 5.76198V4.48757H13.6047V5.76198C13.6047 7.10278 14.677 8.19365 15.9945 8.19365C17.3106 8.19365 18.3817 7.10278 18.3817 5.76198V4.48757H22.7001V5.76198C22.7001 7.10278 23.7715 8.19365 25.0885 8.19365C26.4047 8.19365 27.4758 7.10278 27.4758 5.76198V4.48757H30.7197V34.4625H30.7205Z" fill="white"/>
</svg>
